<?xml version="1.0" standalone="no"?>
<!DOCTYPE svg PUBLIC "-//W3C//DTD SVG 20010904//EN"
 "http://www.w3.org/TR/2001/REC-SVG-20010904/DTD/svg10.dtd">
<svg version="1.0" xmlns="http://www.w3.org/2000/svg"
 width="699.000000pt" height="699.000000pt" viewBox="0 0 699.000000 699.000000"
 preserveAspectRatio="xMidYMid meet">

<g transform="translate(0.000000,699.000000) scale(0.100000,-0.100000)"
fill="#000000" stroke="none">
<path d="M3295 6984 c-354 -28 -641 -85 -941 -188 -909 -312 -1663 -1003
-2049 -1877 -145 -331 -232 -644 -282 -1024 -23 -181 -23 -619 0 -800 24 -181
52 -328 92 -480 219 -838 735 -1560 1450 -2030 310 -203 580 -331 905 -429
665 -201 1347 -204 2014 -11 548 159 1073 470 1481 881 562 564 902 1268 1002
2074 24 195 24 599 0 790 -103 814 -443 1518 -1008 2080 -558 556 -1273 901
-2064 995 -126 15 -499 27 -600 19z m487 -589 c51 -18 104 -69 114 -111 9 -37
-13 -103 -45 -135 -35 -34 -95 -51 -188 -52 l-73 0 0 -52 c0 -29 -3 -67 -6
-84 -6 -30 -8 -31 -64 -31 l-57 0 -6 83 c-4 45 -7 153 -7 239 0 154 0 157 23
162 48 10 262 -3 309 -19z m-482 -2 c1 -10 14 -117 29 -238 16 -121 26 -223
24 -227 -2 -5 -30 -8 -62 -8 -68 0 -60 -18 -86 190 -9 74 -19 142 -22 150 -7
19 -14 -5 -58 -199 -19 -84 -35 -155 -37 -156 -2 -1 -24 -5 -49 -9 l-46 -7
-88 160 c-49 88 -91 159 -92 157 -2 -2 10 -81 27 -177 16 -96 30 -174 30 -175
0 -3 -112 -25 -115 -22 -4 4 -81 410 -87 457 -3 23 2 26 92 46 l95 22 43 -66
c23 -36 62 -104 86 -152 l43 -85 12 75 c6 42 23 120 38 173 l26 97 41 4 c22 2
67 4 99 5 48 2 57 -1 57 -15z m787 -24 c58 -10 64 -13 60 -33 -32 -133 -58
-300 -53 -331 11 -59 81 -91 139 -64 36 16 51 51 92 204 21 77 41 144 46 149
7 7 120 -18 138 -30 2 -2 -20 -75 -48 -164 -48 -148 -56 -165 -96 -205 -50
-50 -84 -60 -183 -53 -111 8 -203 73 -218 154 -12 64 29 384 49 384 6 0 39 -5
74 -11z m836 -271 c70 -34 127 -63 127 -65 0 -2 -9 -22 -20 -44 l-21 -40 -32
20 c-18 11 -53 29 -78 39 l-47 20 -82 -176 c-45 -97 -83 -178 -85 -180 -1 -2
-28 8 -60 22 -46 21 -55 29 -51 44 4 10 37 94 75 185 l69 166 -77 30 c-81 32
-84 36 -62 94 l10 26 103 -40 c57 -22 160 -68 231 -101z m-2415 90 c78 -37
121 -117 122 -227 0 -108 -55 -188 -168 -241 -126 -59 -237 -46 -322 39 -112
112 -102 281 23 373 116 85 241 106 345 56z m-554 -199 c11 -58 8 -64 -44 -82
-63 -22 -128 -72 -152 -117 -41 -74 -3 -176 78 -215 64 -30 159 -4 238 65 l34
31 28 -37 28 -37 -39 -34 c-22 -18 -78 -52 -123 -75 -74 -37 -92 -42 -150 -42
-79 0 -132 24 -182 80 -135 154 -41 368 207 470 32 13 61 24 64 24 4 0 9 -14
13 -31z m3276 -57 c108 -67 227 -149 235 -162 6 -10 -34 -70 -47 -70 -4 0 -50
29 -102 65 -52 36 -98 65 -104 65 -5 0 -21 -19 -35 -42 l-25 -42 82 -54 c116
-78 113 -74 81 -116 l-27 -35 -93 65 -93 64 -26 -44 c-14 -25 -26 -46 -26 -49
0 -2 43 -32 95 -68 52 -35 95 -68 95 -74 -1 -5 -12 -23 -25 -40 l-24 -29 -88
60 c-48 33 -116 77 -150 98 -35 21 -63 41 -63 46 0 13 232 420 239 420 4 0 49
-26 101 -58z m-1482 -243 c682 -74 1305 -454 1687 -1028 464 -699 510 -1600
119 -2340 -342 -646 -956 -1089 -1679 -1212 -156 -26 -423 -35 -580 -20 -1080
108 -1941 942 -2080 2014 -20 153 -19 422 1 579 135 1049 987 1888 2039 2006
114 13 379 14 493 1z m2284 -816 c28 -32 30 -58 7 -86 -55 -70 -155 8 -103 81
19 27 74 30 96 5z m-4970 -20 c28 -32 30 -58 7 -86 -55 -70 -155 8 -103 81 19
27 74 30 96 5z m5280 -655 c114 -34 208 -195 208 -355 0 -59 -2 -63 -22 -63
-58 0 -65 8 -71 76 -6 76 -45 164 -84 189 -69 45 -180 19 -224 -52 -28 -46
-29 -128 -1 -201 l20 -52 -35 -15 c-20 -8 -39 -15 -44 -15 -27 0 -74 200 -64
270 15 101 72 175 161 210 57 22 101 25 156 8z m-5791 -393 l26 -6 -17 -87
c-31 -155 -31 -159 -7 -166 12 -3 36 -6 53 -6 l31 0 17 98 c9 53 20 102 24
109 12 19 94 -5 88 -26 -10 -32 -37 -193 -34 -196 2 -2 27 -7 56 -11 47 -6 52
-5 52 12 0 29 30 189 38 201 12 20 94 -5 87 -26 -10 -33 -45 -254 -45 -286 0
-19 -4 -37 -10 -40 -9 -6 -347 18 -447 31 l-42 5 6 52 c8 80 52 337 59 348 3
5 13 8 22 5 10 -3 29 -8 43 -11z m6026 -181 c36 -179 25 -304 -32 -361 -28
-28 -40 -33 -80 -33 -40 0 -52 5 -79 33 -18 17 -35 38 -37 46 -4 10 -13 5 -35
-17 -21 -20 -55 -37 -104 -52 -40 -12 -79 -24 -86 -27 -11 -4 -14 9 -14 60 l0
66 55 20 c31 12 59 21 64 21 5 0 20 9 35 21 21 17 26 29 26 66 l0 45 -94 -7
-94 -7 -7 57 c-4 31 -4 59 0 63 7 7 442 71 460 68 6 -2 15 -29 22 -62z m-5835
-340 c56 -19 114 -73 139 -129 24 -54 45 -158 54 -262 7 -81 7 -82 -16 -87
-37 -9 -435 -76 -446 -76 -14 0 -30 66 -44 184 -18 152 9 273 73 333 55 52
153 67 240 37z m5623 -149 c110 -4 208 -9 219 -12 17 -5 18 -13 11 -92 -7 -96
-33 -292 -39 -298 -2 -2 -22 -1 -45 3 -47 8 -46 0 -26 138 8 55 12 103 9 108
-3 4 -27 8 -53 8 l-48 0 -14 -102 -14 -103 -44 2 c-24 1 -44 3 -46 5 -1 2 4
48 11 103 15 113 14 115 -52 115 l-41 0 -12 -98 c-7 -55 -16 -105 -21 -111 -5
-9 -20 -11 -49 -6 -39 6 -42 9 -37 33 7 37 24 173 32 255 6 67 6 68 32 63 15
-3 117 -8 227 -11z m-198 -429 c154 -91 333 -217 332 -235 0 -9 -10 -50 -23
-91 -21 -74 -22 -75 -61 -82 -60 -10 -485 -10 -485 1 0 5 10 34 21 65 l22 56
68 0 68 0 21 69 c11 37 20 72 20 77 0 5 -22 22 -50 37 -27 15 -52 32 -55 38
-8 12 14 119 24 119 4 0 48 -24 98 -54z m-5282 -50 c28 -13 64 -38 80 -57 69
-82 101 -212 74 -306 -25 -92 -146 -183 -242 -183 -160 0 -297 202 -265 390
26 146 205 225 353 156z m268 -486 c72 -85 124 -221 113 -297 -17 -123 -121
-217 -241 -217 -76 0 -132 28 -198 96 -51 55 -116 175 -120 223 -2 29 0 30 43
33 l46 3 11 -43 c16 -59 66 -134 105 -158 64 -39 165 -17 212 47 24 33 32 109
16 157 -6 20 -27 57 -46 82 -19 24 -34 47 -34 50 0 7 53 53 62 54 3 0 17 -13
31 -30z m4919 -64 c93 -42 170 -76 172 -76 2 0 16 30 32 68 15 37 31 71 34 75
4 4 25 1 48 -8 l40 -16 -31 -77 c-27 -68 -170 -358 -181 -370 -7 -6 -76 38
-76 48 0 5 16 38 35 73 19 35 35 67 35 70 0 4 -78 46 -172 93 -95 47 -174 87
-176 89 -1 1 9 28 23 59 16 36 30 56 38 53 7 -3 87 -39 179 -81z m-57 -399
c44 -27 90 -56 103 -63 l22 -15 -36 -57 c-76 -119 -196 -272 -207 -266 -19 11
-57 47 -57 54 0 3 27 42 61 85 86 113 85 108 41 139 -21 14 -42 26 -48 25 -5
0 -36 -38 -69 -84 -33 -47 -63 -85 -67 -85 -4 0 -22 13 -39 28 l-32 28 62 80
c33 43 61 84 61 89 -1 10 -80 70 -84 63 -1 -2 -33 -45 -70 -95 l-68 -93 -34
28 c-19 15 -34 29 -34 32 0 3 26 40 58 81 31 41 76 105 100 141 l44 67 106
-66 c59 -36 143 -88 187 -116z m-885 -317 c0 -5 6 -10 14 -10 7 0 20 -7 27
-16 12 -15 11 -19 -9 -32 -12 -8 -22 -21 -22 -29 0 -7 -7 -16 -15 -19 -21 -8
-19 -29 10 -113 44 -130 143 -283 164 -252 5 7 13 11 19 7 6 -3 13 -2 17 4 10
16 35 12 35 -7 0 -9 7 -25 16 -35 15 -15 15 -23 4 -65 -22 -80 -69 -164 -122
-215 -56 -55 -100 -81 -122 -72 -8 3 -19 -3 -25 -15 -29 -52 -243 -74 -351
-35 -36 13 -56 27 -59 39 -2 10 -9 25 -17 33 -16 15 -10 32 12 32 8 0 14 7 14
15 0 8 7 15 15 15 41 0 -18 161 -106 291 -38 56 -50 61 -109 48 -11 -3 -16 6
-18 36 -3 38 0 43 73 109 59 53 75 73 71 89 -8 31 17 80 58 114 61 50 174 63
188 22 6 -17 85 4 157 42 59 30 81 36 81 19z m-3085 -59 c28 -10 69 -22 93
-26 38 -6 47 -4 64 15 18 20 28 22 75 17 87 -9 190 -100 178 -157 -4 -20 2
-32 27 -57 18 -17 49 -39 68 -48 54 -27 57 -32 51 -72 -5 -30 -11 -38 -28 -38
-12 0 -25 -3 -29 -7 -4 -4 -13 -3 -20 3 -10 8 -23 -5 -57 -58 -73 -114 -95
-155 -116 -220 -24 -70 -25 -83 -11 -83 6 0 19 -9 31 -21 20 -20 20 -22 4 -56
-23 -47 -86 -75 -187 -81 -95 -6 -209 25 -233 62 -11 16 -22 22 -35 19 -13 -3
-38 15 -87 64 -70 70 -107 130 -128 212 -10 40 -9 50 8 84 19 37 31 45 42 27
3 -5 13 -6 21 -3 9 3 20 0 24 -7 12 -19 32 -1 81 72 37 53 109 215 109 243 0
7 -13 27 -30 45 -16 18 -30 35 -30 38 0 7 52 51 60 52 3 0 28 -8 55 -19z
m2437 -455 c10 -27 17 -51 14 -53 -3 -3 -36 -11 -75 -18 -86 -17 -123 -35
-155 -78 -33 -43 -41 -86 -26 -132 25 -76 115 -95 245 -51 39 14 71 23 72 22
1 -1 5 -27 9 -58 l7 -56 -84 -27 c-62 -21 -106 -28 -169 -29 -76 -1 -92 2
-145 29 -71 36 -103 84 -112 170 -16 156 101 278 307 318 41 8 79 14 84 13 5
-1 17 -24 28 -50z m-1622 1 l85 -22 -4 -60 c-1 -33 -4 -61 -5 -62 -1 -2 -26 6
-54 17 -56 21 -117 26 -127 10 -9 -15 13 -49 71 -113 31 -34 58 -74 66 -98 10
-37 10 -46 -8 -77 -47 -87 -170 -96 -360 -26 l-41 16 9 51 c15 82 12 80 75 48
68 -34 107 -44 134 -36 28 9 24 27 -22 85 -76 96 -89 120 -89 166 0 31 7 51
26 73 45 54 112 62 244 28z m281 -53 l56 -6 32 -65 31 -64 36 42 c19 23 41 49
47 58 10 13 27 15 100 11 l87 -5 -96 -113 -96 -113 28 -47 c15 -26 51 -82 81
-124 l54 -78 -105 0 -106 0 -36 73 c-20 39 -38 74 -40 76 -3 3 -35 -25 -72
-61 l-67 -66 -94 14 c-52 8 -96 16 -98 17 -1 2 37 35 85 75 48 39 105 89 126
111 l37 38 -61 123 -62 123 39 -6 c21 -4 63 -9 94 -13z m753 -15 c60 -17 86
-49 86 -106 -1 -51 -14 -76 -56 -104 l-27 -17 35 -15 c44 -19 68 -52 68 -95 0
-108 -116 -165 -327 -160 l-108 3 -9 63 c-5 34 -7 64 -4 67 2 2 22 0 44 -6
101 -29 214 -7 214 41 0 27 -37 40 -116 40 l-64 0 0 49 0 48 71 7 c74 8 114
31 103 61 -9 23 -47 28 -141 21 l-86 -7 7 23 c3 13 6 30 6 38 0 8 4 21 9 29
16 25 224 40 295 20z"/>
<path d="M3590 6255 l0 -75 54 0 c68 0 106 26 106 73 0 56 -31 77 -109 77
l-51 0 0 -75z"/>
<path d="M2269 6089 c-48 -28 -69 -66 -69 -126 1 -126 126 -212 231 -158 89
46 93 193 7 270 -32 30 -45 35 -86 35 -29 0 -61 -8 -83 -21z"/>
<path d="M3210 5583 c-96 -15 -250 -49 -330 -73 -529 -152 -993 -515 -1282
-1003 -15 -26 -28 -50 -28 -52 0 -3 39 -5 88 -5 85 0 87 1 107 29 24 37 54 51
106 51 31 0 47 -7 77 -34 34 -32 37 -39 37 -90 0 -49 -4 -59 -33 -88 -29 -29
-39 -33 -88 -33 -51 0 -58 3 -90 38 l-34 37 -111 0 -110 0 -26 -57 c-14 -32
-38 -91 -53 -130 l-28 -73 321 0 322 0 116 116 116 116 -14 41 c-29 81 14 183
91 218 154 70 312 -91 236 -240 -37 -74 -117 -112 -197 -94 l-41 10 -134 -134
-133 -133 -356 0 -357 0 -7 -27 c-4 -16 -17 -76 -30 -135 l-23 -108 282 0 282
0 113 115 113 115 266 0 267 0 16 39 c9 21 33 51 54 67 34 25 47 29 105 29 58
0 71 -4 104 -29 129 -98 79 -296 -82 -322 -55 -9 -137 30 -171 81 l-24 35
-246 0 -246 0 -115 -115 -115 -115 -307 0 -308 0 0 -85 0 -85 480 0 479 0 15
29 c34 65 121 110 189 97 45 -8 96 -43 124 -85 18 -26 23 -48 23 -94 0 -92
-46 -152 -135 -176 -75 -20 -165 23 -199 93 l-17 36 -479 0 -480 0 0 -85 0
-85 338 0 337 0 120 -120 120 -120 252 0 c234 0 252 1 257 18 11 33 70 81 117
93 150 40 275 -120 201 -256 -36 -68 -129 -108 -201 -87 -51 16 -97 55 -119
101 l-17 36 -269 3 -269 2 -119 115 -119 115 -310 0 -311 0 6 -27 c3 -16 15
-76 27 -135 l22 -108 321 0 321 0 134 -134 c122 -122 136 -134 158 -125 65 24
151 3 195 -49 124 -147 -30 -361 -204 -284 -85 37 -129 137 -99 223 l11 33
-117 118 -118 118 -282 0 c-189 0 -283 -3 -283 -10 0 -14 64 -179 84 -219 l17
-31 119 0 c111 0 119 1 125 21 10 31 64 59 114 59 37 0 49 -6 83 -40 39 -38
40 -42 36 -91 -9 -88 -81 -136 -166 -111 -22 7 -45 24 -57 42 -20 30 -21 30
-112 30 -51 0 -93 -3 -93 -7 0 -26 135 -232 231 -353 82 -105 267 -284 372
-364 310 -232 657 -377 1036 -431 90 -14 165 -16 355 -13 210 4 258 8 372 31
527 108 997 399 1320 817 72 94 204 296 204 313 0 4 -47 7 -104 7 -97 0 -105
-2 -111 -21 -9 -29 -63 -59 -106 -59 -42 0 -98 34 -116 70 -28 54 -5 132 46
163 58 34 159 9 176 -42 6 -20 14 -21 134 -21 l128 0 26 57 c24 55 77 191 77
199 0 2 -132 4 -293 4 l-292 0 -119 -119 -119 -119 13 -31 c33 -81 -12 -186
-98 -223 -147 -65 -299 87 -234 234 37 84 137 129 220 100 28 -10 33 -6 163
124 l133 134 330 2 330 3 22 105 c13 58 23 117 24 133 l0 27 -316 0 -316 0
-117 -115 -118 -115 -266 0 -267 0 -19 -39 c-43 -83 -127 -124 -209 -102 -118
31 -171 158 -109 263 33 57 82 83 157 83 67 -1 109 -23 141 -76 l24 -38 250
-1 250 0 120 120 120 120 347 0 348 0 0 85 0 85 -490 0 -489 0 -17 -36 c-33
-70 -124 -113 -198 -93 -141 38 -186 220 -77 312 88 73 206 53 270 -46 l24
-37 489 0 488 0 0 85 0 85 -317 0 -316 0 -117 115 -116 115 -246 0 -247 0 -17
-29 c-35 -59 -117 -98 -182 -86 -82 14 -152 96 -152 176 1 50 33 112 76 145
33 25 46 29 104 29 58 0 71 -4 105 -29 21 -16 45 -46 54 -67 l16 -39 269 0
269 0 110 -115 109 -115 290 0 289 0 -7 46 c-3 25 -16 84 -28 132 l-21 87
-365 3 -366 2 -133 134 -133 133 -40 -10 c-54 -14 -137 12 -172 53 -98 118
-17 299 135 300 113 0 204 -128 166 -237 l-14 -41 116 -116 116 -116 328 0
c180 0 327 2 327 5 0 9 -50 138 -77 197 l-26 58 -119 0 -119 0 -39 -41 c-38
-40 -41 -41 -91 -37 -40 4 -58 12 -82 37 -28 28 -32 38 -32 87 0 51 3 58 37
90 31 28 46 34 80 34 49 0 103 -28 113 -59 6 -19 14 -21 106 -21 l101 0 -23
38 c-115 191 -197 299 -334 440 -332 344 -744 560 -1223 642 -95 17 -157 20
-370 19 -142 -1 -268 -4 -282 -6z"/>
<path d="M2381 4509 c-50 -47 -50 -111 1 -154 94 -80 217 58 129 146 -37 36
-95 40 -130 8z"/>
<path d="M4479 4501 c-87 -88 35 -226 129 -146 36 30 47 66 32 110 -23 69
-109 88 -161 36z"/>
<path d="M1815 4455 c-30 -29 -32 -64 -5 -93 45 -48 120 -21 120 42 0 37 -7
49 -37 65 -33 17 -51 14 -78 -14z"/>
<path d="M5086 4459 c-44 -35 -30 -110 24 -120 45 -9 90 30 90 77 0 21 -46 64
-68 64 -11 0 -31 -9 -46 -21z"/>
<path d="M2773 4010 c-26 -11 -53 -59 -53 -94 0 -13 11 -38 25 -54 46 -55 123
-51 158 7 53 90 -31 181 -130 141z"/>
<path d="M4100 3992 c-44 -44 -42 -92 5 -139 32 -32 40 -35 73 -30 49 8 92 55
92 102 0 51 -35 86 -92 92 -42 5 -50 3 -78 -25z"/>
<path d="M2398 3494 c-29 -15 -58 -61 -58 -89 0 -27 31 -72 57 -84 43 -20 82
-13 114 18 46 47 35 127 -22 157 -35 18 -57 17 -91 -2z"/>
<path d="M4484 3476 c-45 -45 -47 -95 -5 -137 52 -52 141 -31 161 39 15 49 1
86 -42 112 -47 29 -75 25 -114 -14z"/>
<path d="M2824 2956 c-38 -38 -42 -62 -18 -107 18 -35 75 -63 107 -53 77 23
102 111 48 165 -42 42 -92 40 -137 -5z"/>
<path d="M4029 2961 c-76 -77 5 -199 105 -157 70 29 83 112 24 161 -42 35 -91
34 -129 -4z"/>
<path d="M1828 2474 c-38 -20 -46 -58 -21 -92 40 -54 123 -32 123 32 0 55 -54
87 -102 60z"/>
<path d="M2324 2480 c-59 -24 -72 -104 -25 -151 79 -79 213 14 161 112 -22 39
-88 59 -136 39z"/>
<path d="M4571 2477 c-87 -51 -52 -177 49 -177 33 0 48 6 72 30 27 27 30 36
25 72 -3 22 -14 50 -25 60 -25 25 -90 33 -121 15z"/>
<path d="M5110 2483 c-53 -19 -69 -89 -28 -117 24 -17 65 -21 84 -8 15 9 34
47 34 65 0 35 -56 72 -90 60z"/>
<path d="M6393 3523 c-13 -2 -23 -6 -23 -7 0 -2 5 -27 10 -56 12 -63 33 -90
70 -90 43 0 60 28 60 98 l0 62 -47 -1 c-27 -1 -58 -4 -70 -6z"/>
<path d="M595 3140 c-27 -11 -61 -49 -74 -83 -17 -43 -14 -156 3 -163 8 -3 83
3 168 13 l153 18 -3 45 c-5 72 -39 131 -92 158 -45 23 -116 28 -155 12z"/>
<path d="M6220 2506 c-5 -13 -12 -40 -15 -59 l-7 -35 89 5 c48 2 91 5 95 6 3
1 -30 26 -73 54 l-80 53 -9 -24z"/>
<path d="M739 2540 c-96 -29 -140 -131 -94 -219 66 -129 305 -65 305 81 0 109
-97 173 -211 138z"/>
<path d="M5063 1350 c-18 -11 -33 -27 -33 -36 0 -11 -6 -15 -19 -11 -22 5 -34
-14 -25 -38 6 -16 16 -15 72 6 12 5 22 15 22 24 0 8 7 15 15 15 17 0 39 36 30
50 -9 15 -26 12 -62 -10z"/>
<path d="M4755 1316 c-58 -26 -98 -86 -81 -122 15 -34 40 -32 33 3 -4 20 2 32
27 55 32 30 96 53 106 39 9 -13 52 -21 46 -8 -3 7 -9 20 -12 30 -8 21 -74 23
-119 3z"/>
<path d="M4905 1279 c8 -11 55 -12 55 -1 0 5 -14 9 -30 10 -17 0 -28 -4 -25
-9z"/>
<path d="M4935 1240 c-3 -6 1 -7 9 -4 18 7 21 14 7 14 -6 0 -13 -4 -16 -10z"/>
<path d="M5017 1113 c-32 -76 -61 -147 -63 -158 -5 -19 6 -22 153 -46 87 -14
160 -25 162 -23 2 2 -10 19 -26 37 -51 58 -100 148 -129 239 -16 49 -31 88
-34 88 -3 0 -31 -62 -63 -137z m106 -51 c37 -32 5 -112 -45 -112 -58 0 -80 81
-32 119 26 21 46 19 77 -7z"/>
<path d="M5047 1042 c-22 -24 -21 -35 3 -57 17 -15 24 -16 45 -7 25 11 31 34
19 66 -8 22 -47 20 -67 -2z"/>
<path d="M4750 1194 c-25 -49 -106 -144 -121 -144 -16 0 -10 14 21 49 17 18
30 37 30 41 0 20 -15 14 -53 -24 -23 -23 -57 -52 -75 -64 -17 -13 -32 -30 -32
-38 0 -19 28 -30 43 -15 6 6 26 11 44 11 24 0 31 4 27 14 -4 11 0 13 15 9 16
-4 23 1 31 21 9 25 35 36 42 17 2 -4 14 -11 28 -15 24 -7 24 -6 6 8 -19 16
-19 16 2 39 12 13 22 30 22 38 0 8 -9 -1 -20 -18 -20 -33 -50 -45 -50 -19 0 7
6 19 14 25 8 7 24 33 36 58 l21 45 46 -5 c28 -3 40 -1 32 4 -8 5 -30 9 -49 9
-32 0 -38 -5 -60 -46z"/>
<path d="M4950 1200 c33 -11 78 -12 83 -2 3 4 -20 8 -51 8 -41 1 -50 -1 -32
-6z"/>
<path d="M4875 1176 c-18 -13 -18 -14 1 -24 16 -9 19 -7 19 14 0 13 0 24 -1
24 0 0 -9 -6 -19 -14z"/>
<path d="M4985 1152 c-11 -2 -24 -8 -29 -13 -6 -5 -18 -9 -27 -9 -9 0 -19 -7
-23 -15 -3 -8 -16 -15 -28 -15 -13 0 -29 -9 -36 -20 -7 -11 -19 -20 -28 -20
-18 0 -84 -51 -84 -65 0 -10 34 -18 173 -42 36 -7 34 4 -9 61 -43 54 -38 76 6
28 16 -18 34 -32 40 -32 11 0 73 128 68 139 -2 4 -12 5 -23 3z"/>
<path d="M4610 986 c0 -3 22 -39 49 -81 49 -74 111 -216 111 -253 0 -10 3 -22
6 -25 7 -7 134 269 134 289 0 11 -61 27 -205 54 -33 6 -68 14 -77 16 -10 3
-18 3 -18 0z m134 -82 c9 -8 19 -26 22 -40 7 -29 12 -29 44 -4 14 11 28 20 33
20 11 0 8 -38 -3 -45 -8 -5 -8 -11 0 -20 9 -11 6 -16 -11 -25 -12 -7 -24 -8
-28 -3 -3 5 -23 17 -43 26 -42 20 -58 43 -58 81 0 30 20 34 44 10z"/>
<path d="M5303 876 c-13 -13 -23 -29 -23 -36 0 -26 -64 -131 -105 -172 -60
-61 -124 -90 -209 -96 -39 -2 -91 2 -116 8 -25 6 -58 12 -75 13 -35 2 -63 -19
-47 -35 6 -6 8 -16 5 -24 -3 -9 14 -19 54 -31 111 -34 284 -14 320 37 8 12 26
20 42 20 59 0 162 110 204 218 19 47 22 92 7 92 -5 0 -10 7 -10 15 0 22 -22
18 -47 -9z m-17 -100 c-23 -52 -118 -166 -138 -166 -5 0 14 22 42 50 31 30 63
75 82 115 37 80 49 81 14 1z m-36 -120 c0 -2 -8 -10 -17 -17 -16 -13 -17 -12
-4 4 13 16 21 21 21 13z m-135 -76 c-3 -5 -11 -10 -16 -10 -6 0 -7 5 -4 10 3
6 11 10 16 10 6 0 7 -4 4 -10z m-246 -21 c45 -10 125 -4 169 12 13 5 22 5 22
-1 0 -34 -216 -37 -257 -3 -17 14 -17 14 1 8 11 -3 40 -10 65 -16z m171 -39
c-8 -5 -19 -10 -25 -10 -5 0 -3 5 5 10 8 5 20 10 25 10 6 0 3 -5 -5 -10z"/>
<path d="M4905 849 c-4 -6 -5 -12 -2 -15 2 -3 7 2 10 11 7 17 1 20 -8 4z"/>
<path d="M4964 834 c-18 -14 -18 -15 4 -4 12 6 22 13 22 15 0 8 -5 6 -26 -11z"/>
<path d="M5037 815 c9 -19 19 -33 21 -30 7 7 -19 65 -29 65 -5 0 -1 -16 8 -35z"/>
<path d="M4940 800 c0 -21 33 -75 38 -62 2 8 -1 19 -7 25 -6 6 -11 19 -11 29
0 10 -4 18 -10 18 -5 0 -10 -5 -10 -10z"/>
<path d="M4872 775 c-17 -37 -14 -45 4 -12 9 16 14 31 11 33 -2 2 -9 -7 -15
-21z"/>
<path d="M5013 758 c4 -13 -1 -23 -19 -34 -40 -27 -29 -57 25 -70 25 -6 47
-16 49 -22 7 -21 25 -13 19 9 -3 12 4 39 15 61 19 36 19 41 5 56 -14 13 -20
14 -41 2 -21 -11 -28 -11 -43 1 -15 12 -16 12 -10 -3z m57 -22 c0 -3 -4 -8
-10 -11 -5 -3 -10 -1 -10 4 0 6 5 11 10 11 6 0 10 -2 10 -4z m-30 -26 c12 -7
10 -9 -8 -7 -12 0 -22 5 -22 9 0 11 12 10 30 -2z"/>
<path d="M4846 713 c-6 -14 -5 -15 5 -6 7 7 10 15 7 18 -3 3 -9 -2 -12 -12z"/>
<path d="M4825 669 c-4 -6 -5 -12 -2 -15 2 -3 7 2 10 11 7 17 1 20 -8 4z"/>
<path d="M1975 1310 c-7 -11 65 -84 102 -105 10 -6 34 -10 53 -9 19 1 59 3 88
3 82 1 60 16 -27 18 -76 1 -121 14 -121 33 0 5 27 6 60 4 39 -4 60 -2 60 5 0
6 -8 11 -19 11 -10 0 -53 11 -95 25 -87 28 -92 29 -101 15z"/>
<path d="M2240 1314 c-22 -6 -42 -61 -25 -68 8 -2 19 4 27 15 12 17 17 18 53
8 55 -15 95 -46 95 -72 0 -23 16 -55 23 -47 2 3 7 17 11 32 14 60 -113 151
-184 132z"/>
<path d="M2295 1213 c11 -3 24 -10 28 -17 6 -7 7 -6 4 4 -2 8 -14 16 -28 17
-19 1 -20 1 -4 -4z"/>
<path d="M1996 1158 c-31 -91 -65 -155 -117 -224 -27 -36 -49 -68 -47 -69 4
-4 308 51 313 57 6 6 -116 288 -124 288 -4 0 -15 -24 -25 -52z m34 -97 c0 -16
-7 -34 -15 -41 -23 -19 -18 -29 20 -47 42 -20 44 -30 8 -39 -16 -4 -31 -11
-34 -17 -4 -5 -15 -4 -29 3 -15 8 -19 15 -12 22 6 6 7 21 1 41 -15 52 7 107
42 107 14 0 19 -7 19 -29z"/>
<path d="M2150 1163 c0 -10 5 -25 10 -33 8 -12 10 -11 10 8 0 12 0 25 1 29 0
4 -4 9 -10 11 -6 2 -11 -5 -11 -15z"/>
<path d="M2208 1158 c9 -9 15 -9 24 0 9 9 7 12 -12 12 -19 0 -21 -3 -12 -12z"/>
<path d="M2340 1165 c0 -5 5 -17 10 -25 5 -8 10 -10 10 -5 0 6 -5 17 -10 25
-5 8 -10 11 -10 5z"/>
<path d="M2422 1121 c2 -14 9 -26 16 -29 17 -5 15 10 -3 34 -15 18 -15 18 -13
-5z"/>
<path d="M2094 1108 c3 -7 20 -50 38 -95 34 -86 53 -102 64 -55 10 46 26 82
36 82 6 0 7 -10 3 -22 -7 -25 -8 -69 0 -76 2 -2 36 3 74 13 63 15 69 19 59 35
-6 9 -31 25 -55 35 -23 10 -48 24 -54 32 -6 7 -18 13 -27 13 -8 0 -23 6 -31
13 -14 12 -86 37 -106 37 -4 0 -5 -6 -1 -12z"/>
<path d="M2310 1085 c1 -26 2 -28 11 -12 8 14 8 22 0 30 -8 8 -11 3 -11 -18z"/>
<path d="M2450 1056 c0 -30 34 -60 60 -53 11 3 23 1 26 -4 3 -5 14 -9 25 -9
33 0 25 44 -12 57 -17 7 -37 9 -45 6 -8 -3 -14 1 -14 9 0 7 -9 14 -20 15 -15
1 -20 -4 -20 -21z"/>
<path d="M2390 1024 c1 -13 29 -48 34 -43 2 2 -4 15 -15 28 -10 13 -19 19 -19
15z"/>
<path d="M2435 966 c-16 -8 -81 -24 -142 -36 -62 -13 -113 -28 -113 -33 0 -17
114 -287 121 -287 3 0 12 21 20 48 20 72 57 149 111 229 63 94 63 104 3 79z
m-84 -87 c25 -25 19 -65 -13 -92 -28 -23 -56 -18 -79 13 -18 26 -16 80 3 80 5
0 7 -12 4 -27 -7 -33 1 -48 30 -57 14 -4 26 0 38 13 25 28 17 54 -22 66 -17 5
-32 13 -32 17 0 16 51 7 71 -13z"/>
<path d="M1740 875 c0 -8 -5 -15 -11 -15 -18 0 -5 -71 25 -135 31 -68 133
-175 168 -175 28 0 42 -9 51 -31 9 -28 103 -53 192 -54 96 0 175 25 175 56 0
10 5 19 11 19 8 0 8 4 0 14 -15 17 -70 29 -85 17 -6 -5 -39 -12 -73 -16 -135
-15 -248 36 -322 145 -22 34 -46 81 -53 103 -17 57 -78 113 -78 72z m20 -73
c0 -15 -2 -15 -10 -2 -13 20 -13 33 0 25 6 -3 10 -14 10 -23z m88 -99 c11 -16
34 -41 51 -57 17 -17 31 -34 31 -40 0 -5 -18 7 -39 28 -46 45 -101 143 -101
177 1 16 7 5 20 -28 10 -29 27 -65 38 -80z m37 -103 c3 -5 2 -10 -4 -10 -5 0
-13 5 -16 10 -3 6 -2 10 4 10 5 0 13 -4 16 -10z m85 -30 c0 -5 -2 -10 -4 -10
-3 0 -8 5 -11 10 -3 6 -1 10 4 10 6 0 11 -4 11 -10z m127 -32 c28 -6 66 -6
110 1 83 13 94 7 18 -10 -63 -14 -178 -1 -199 22 -8 9 -6 10 9 4 11 -4 39 -12
62 -17z"/>
<path d="M2037 799 c-10 -18 -16 -34 -13 -36 2 -3 12 9 20 25 9 17 26 33 38
35 22 4 22 4 -2 6 -18 1 -30 -8 -43 -30z"/>
<path d="M2122 758 c-15 -41 -11 -44 10 -8 9 16 13 32 9 34 -4 3 -12 -9 -19
-26z"/>
<path d="M1973 734 c-3 -8 0 -33 7 -54 7 -21 10 -45 7 -54 -9 -24 7 -27 26 -5
9 10 28 19 41 19 37 0 56 10 56 31 0 10 -9 23 -20 29 -11 6 -20 20 -20 32 0
17 -3 18 -14 9 -11 -9 -20 -9 -35 -2 -27 15 -41 14 -48 -5z"/>
</g>
</svg>
